<svg width="14" height="15" viewBox="0 0 14 15" fill="none" xmlns="http://www.w3.org/2000/svg">
<g clip-path="url(#clip0_904_13433)">
<path d="M11.6647 6.55469V11.513C11.6647 13.1213 10.3563 14.4297 8.74805 14.4297H2.91471C1.30646 14.4297 -0.00195312 13.1213 -0.00195312 11.513V5.67969C-0.00195312 4.07144 1.30646 2.76302 2.91471 2.76302H7.87305C7.98815 2.7636 8.10053 2.79815 8.19608 2.86234C8.29162 2.92653 8.36609 3.0175 8.41014 3.12385C8.45418 3.2302 8.46585 3.34719 8.44367 3.46014C8.42149 3.57309 8.36645 3.67698 8.28546 3.75877L4.01605 8.02819C3.70676 8.33556 3.52909 8.75114 3.5206 9.18711C3.51211 9.62307 3.67346 10.0453 3.97055 10.3644C4.12411 10.5316 4.31012 10.6657 4.51722 10.7585C4.72433 10.8514 4.94818 10.9011 5.17513 10.9046C5.40206 10.91 5.62769 10.869 5.83823 10.7841C6.04876 10.6993 6.23976 10.5723 6.39955 10.4111L10.669 6.14169C10.7503 6.05956 10.8543 6.00351 10.9676 5.98069C11.081 5.95786 11.1985 5.9693 11.3053 6.01354C11.4121 6.05778 11.5033 6.13281 11.5674 6.22908C11.6314 6.32535 11.6653 6.4385 11.6647 6.5541V6.55469ZM12.248 0.429688H8.16471C8.01 0.429688 7.86163 0.491146 7.75223 0.600542C7.64284 0.709938 7.58138 0.858311 7.58138 1.01302C7.58138 1.16773 7.64284 1.3161 7.75223 1.4255C7.86163 1.5349 8.01 1.59635 8.16471 1.59635H12.0065L4.83563 8.76727C4.72625 8.87665 4.6648 9.025 4.6648 9.17969C4.6648 9.33437 4.72625 9.48272 4.83563 9.5921C4.94501 9.70148 5.09336 9.76293 5.24805 9.76293C5.40273 9.76293 5.55108 9.70148 5.66046 9.5921L12.8314 2.42119V6.26302C12.8314 6.41773 12.8928 6.5661 13.0022 6.6755C13.1116 6.7849 13.26 6.84635 13.4147 6.84635C13.5694 6.84635 13.7178 6.7849 13.8272 6.6755C13.9366 6.5661 13.998 6.41773 13.998 6.26302V2.17969C13.998 1.21485 13.2129 0.429688 12.248 0.429688Z" fill="#D74120"/>
</g>
<defs>
<clipPath id="clip0_904_13433">
<rect width="14" height="14" fill="white" transform="translate(-0.00195312 0.429688)"/>
</clipPath>
</defs>
</svg>
