<svg width="27" height="27" viewBox="0 0 27 27" fill="none" xmlns="http://www.w3.org/2000/svg">
<path d="M0.940918 13.1263C0.940918 15.6975 1.70335 18.2109 3.13181 20.3488C4.56027 22.4866 6.59059 24.1528 8.96603 25.1368C11.3415 26.1207 13.9553 26.3782 16.4771 25.8766C18.9988 25.3749 21.3152 24.1368 23.1333 22.3187C24.9514 20.5006 26.1895 18.1843 26.6911 15.6625C27.1927 13.1408 26.9353 10.5269 25.9514 8.15146C24.9674 5.77602 23.3012 3.7457 21.1633 2.31724C19.0255 0.888779 16.5121 0.126343 13.9409 0.126343C10.4942 0.130071 7.18981 1.50091 4.75265 3.93807C2.31548 6.37524 0.944646 9.67967 0.940918 13.1263ZM18.2743 13.1263C18.2751 13.9194 17.9852 14.6852 17.4596 15.2789C17.1443 15.6332 16.8378 15.969 16.6178 16.1889L13.5585 19.3013C13.4605 19.4095 13.3417 19.4968 13.2092 19.5579C13.0767 19.6191 12.9332 19.6528 12.7873 19.6571C12.6414 19.6614 12.4961 19.6362 12.3603 19.5829C12.2244 19.5297 12.1006 19.4495 11.9965 19.3473C11.8923 19.245 11.8099 19.1228 11.7542 18.9879C11.6985 18.853 11.6706 18.7083 11.6722 18.5623C11.6738 18.4164 11.7048 18.2723 11.7635 18.1386C11.8222 18.005 11.9073 17.8846 12.0137 17.7847L15.0784 14.6647C15.281 14.461 15.5562 14.1577 15.8368 13.8424C16.0113 13.6445 16.1076 13.3897 16.1076 13.1258C16.1076 12.8619 16.0113 12.6071 15.8368 12.4092C15.5932 12.1315 15.3429 11.8599 15.086 11.5945L12.0137 8.46801C11.9073 8.36808 11.8222 8.24768 11.7635 8.11405C11.7048 7.98042 11.6738 7.83631 11.6722 7.69037C11.6706 7.54443 11.6985 7.39967 11.7542 7.26478C11.8099 7.12989 11.8923 7.00766 11.9965 6.90541C12.1006 6.80316 12.2244 6.72301 12.3603 6.66977C12.4961 6.61653 12.6414 6.5913 12.7873 6.59559C12.9332 6.59988 13.0767 6.63361 13.2092 6.69474C13.3417 6.75587 13.4605 6.84315 13.5585 6.95134L16.6233 10.0703C16.8399 10.2869 17.1433 10.6195 17.4563 10.9727C17.9837 11.5661 18.2747 12.3325 18.2743 13.1263Z" fill="#4E6199"/>
</svg>
