<svg width="20" height="20" viewBox="0 0 20 20" fill="none" xmlns="http://www.w3.org/2000/svg">
<path d="M0.63202 7.34757C0.461449 7.03119 0.382426 6.67353 0.40382 6.31474C0.425213 5.95594 0.546176 5.61021 0.753134 5.31634C1.09135 4.8201 1.54429 4.41279 2.07351 4.12895L8.01125 1.03857C8.59487 0.735098 9.24299 0.57666 9.90079 0.57666C10.5586 0.57666 11.2067 0.735098 11.7903 1.03857L17.7273 4.13133C18.2565 4.41516 18.7094 4.82248 19.0476 5.31872C19.2546 5.61259 19.3756 5.95832 19.397 6.31711C19.4184 6.67591 19.3393 7.03356 19.1688 7.34994C18.9851 7.69732 18.7097 7.98765 18.3725 8.18934C18.0353 8.39103 17.6492 8.49633 17.2563 8.4938H2.5453C2.152 8.49625 1.76559 8.39066 1.4282 8.18853C1.09081 7.9864 0.815399 7.69551 0.63202 7.34757ZM18.6083 17.9929C18.6083 17.573 18.4415 17.1703 18.1446 16.8734C17.8477 16.5765 17.445 16.4097 17.0251 16.4097V10.077H15.4419V16.4097H13.0672V10.077H11.484V16.4097H8.3176V10.077H6.73441V16.4097H4.35963V10.077H2.77645V16.4097C2.35656 16.4097 1.95387 16.5765 1.65696 16.8734C1.36006 17.1703 1.19326 17.573 1.19326 17.9929C0.983316 17.9929 0.781971 18.0763 0.633519 18.2248C0.485066 18.3732 0.401666 18.5746 0.401666 18.7845C0.401666 18.9945 0.485066 19.1958 0.633519 19.3442C0.781971 19.4927 0.983316 19.5761 1.19326 19.5761H18.6083C18.8183 19.5761 19.0196 19.4927 19.1681 19.3442C19.3165 19.1958 19.3999 18.9945 19.3999 18.7845C19.3999 18.5746 19.3165 18.3732 19.1681 18.2248C19.0196 18.0763 18.8183 17.9929 18.6083 17.9929Z" fill="#408F8C"/>
</svg>
