<svg width="14" height="14" viewBox="0 0 14 14" fill="none" xmlns="http://www.w3.org/2000/svg">
<g clip-path="url(#clip0_1_1464)">
<path d="M6.7998 13.8195C10.3897 13.8195 13.2998 10.9094 13.2998 7.31952C13.2998 3.72967 10.3897 0.819519 6.7998 0.819519C3.20995 0.819519 0.299805 3.72967 0.299805 7.31952C0.299805 10.9094 3.20995 13.8195 6.7998 13.8195Z" fill="white"/>
<path d="M9.94424 7.45819V9.50025C9.94361 9.5845 9.91151 9.66546 9.85423 9.72724C9.79695 9.78902 9.71863 9.82715 9.63467 9.83412C9.55072 9.8411 9.46718 9.81643 9.40049 9.76496C9.33379 9.71348 9.28876 9.63893 9.27424 9.55594C9.14294 8.76848 8.05238 8.48766 7.07556 8.48766H5.55667V4.77482H7.07556C8.05238 4.77482 9.14294 4.49433 9.27424 3.70653C9.28834 3.62313 9.33324 3.54807 9.40005 3.4962C9.46685 3.44433 9.5507 3.41943 9.63499 3.42644C9.71928 3.43344 9.79787 3.47183 9.8552 3.53402C9.91253 3.5962 9.94443 3.67764 9.94457 3.76222V5.80429C10.1353 5.84302 10.3068 5.94651 10.43 6.09722C10.5532 6.24793 10.6205 6.43659 10.6205 6.63124C10.6205 6.82588 10.5532 7.01454 10.43 7.16525C10.3068 7.31596 10.135 7.41945 9.94424 7.45819ZM4.88127 8.48766V4.77482H4.37497C3.35124 4.77482 2.51855 5.60751 2.51855 6.63124C2.51855 7.65497 3.35124 8.48766 4.37497 8.48766H4.88127ZM5.39533 9.16272H4.37497C4.08689 9.16298 3.80089 9.11377 3.52946 9.01724L4.26224 10.9722C4.29984 11.0761 4.35764 11.1715 4.43232 11.2529C4.507 11.3343 4.59706 11.4001 4.69732 11.4465C4.79738 11.4932 4.9057 11.5198 5.01605 11.5245C5.1264 11.5293 5.2366 11.5121 5.34031 11.4741C5.44418 11.4365 5.53957 11.3787 5.62097 11.3041C5.70237 11.2294 5.76816 11.1393 5.81454 11.0391C5.90939 10.8352 5.91918 10.607 5.84222 10.3964L5.39499 9.16238L5.39533 9.16272Z" fill="#408F8C"/>
</g>
<defs>
<clipPath id="clip0_1_1464">
<rect width="13" height="13" fill="white" transform="translate(0.299805 0.819519)"/>
</clipPath>
</defs>
</svg>
