<svg width="15" height="14" viewBox="0 0 15 14" fill="none" xmlns="http://www.w3.org/2000/svg">
<g clip-path="url(#clip0_345_8941)">
<path d="M12.5046 6.125V11.0833C12.5046 12.6916 11.1961 14 9.58789 14H3.75456C2.14631 14 0.837891 12.6916 0.837891 11.0833V5.25C0.837891 3.64175 2.14631 2.33333 3.75456 2.33333H8.71289C8.828 2.33391 8.94037 2.36846 9.03592 2.43265C9.13147 2.49684 9.20593 2.58782 9.24998 2.69416C9.29403 2.80051 9.30569 2.9175 9.28351 3.03045C9.26133 3.1434 9.2063 3.24729 9.12531 3.32908L4.85589 7.5985C4.5466 7.90587 4.36894 8.32145 4.36044 8.75742C4.35195 9.19338 4.5133 9.61557 4.81039 9.93475C4.96395 10.1019 5.14996 10.236 5.35706 10.3289C5.56417 10.4217 5.78803 10.4714 6.01497 10.4749C6.2419 10.4803 6.46754 10.4393 6.67807 10.3544C6.8886 10.2696 7.07961 10.1426 7.23939 9.98142L11.5088 5.712C11.5902 5.62987 11.6941 5.57382 11.8075 5.551C11.9208 5.52818 12.0384 5.53961 12.1452 5.58385C12.252 5.62809 12.3432 5.70312 12.4072 5.79939C12.4712 5.89566 12.5051 6.00881 12.5046 6.12442V6.125ZM13.0879 0H9.00456C8.84985 0 8.70147 0.0614582 8.59208 0.170854C8.48268 0.280251 8.42122 0.428624 8.42122 0.583333C8.42122 0.738043 8.48268 0.886416 8.59208 0.995812C8.70147 1.10521 8.84985 1.16667 9.00456 1.16667H12.8464L5.67547 8.33758C5.56609 8.44696 5.50464 8.59531 5.50464 8.75C5.50464 8.90469 5.56609 9.05304 5.67547 9.16242C5.78485 9.2718 5.9332 9.33325 6.08789 9.33325C6.24258 9.33325 6.39093 9.2718 6.50031 9.16242L13.6712 1.9915V5.83333C13.6712 5.98804 13.7327 6.13642 13.8421 6.24581C13.9515 6.35521 14.0998 6.41667 14.2546 6.41667C14.4093 6.41667 14.5576 6.35521 14.667 6.24581C14.7764 6.13642 14.8379 5.98804 14.8379 5.83333V1.75C14.8379 0.785167 14.0527 0 13.0879 0Z" fill="#408F8C"/>
</g>
<defs>
<clipPath id="clip0_345_8941">
<rect width="14" height="14" fill="white" transform="translate(0.837891)"/>
</clipPath>
</defs>
</svg>
