<svg width="17" height="17" viewBox="0 0 17 17" fill="none" xmlns="http://www.w3.org/2000/svg">
<g clip-path="url(#clip0_306_8686)">
<path d="M13.1292 2.60007C12.2846 1.89718 11.3035 1.37685 10.2478 1.07187C9.19206 0.766898 8.08463 0.683888 6.99525 0.828074C4.97996 1.08989 3.13984 2.10885 1.84853 3.67808C0.557221 5.2473 -0.0884812 7.24915 0.0425326 9.27715C0.173546 11.3052 1.07146 13.2073 2.55394 14.5973C4.03643 15.9873 5.99236 16.7611 8.02458 16.7614H12.6793C13.563 16.7603 14.4102 16.4088 15.0351 15.7839C15.66 15.159 16.0115 14.3118 16.0126 13.4281V8.25874C15.942 7.16904 15.6499 6.10518 15.1542 5.13222C14.6584 4.15926 13.9694 3.29765 13.1292 2.60007ZM5.34592 5.42807H8.01258C8.18939 5.42807 8.35896 5.49831 8.48399 5.62334C8.60901 5.74836 8.67925 5.91793 8.67925 6.09474C8.67925 6.27155 8.60901 6.44112 8.48399 6.56614C8.35896 6.69117 8.18939 6.76141 8.01258 6.76141H5.34592C5.16911 6.76141 4.99954 6.69117 4.87451 6.56614C4.74949 6.44112 4.67925 6.27155 4.67925 6.09474C4.67925 5.91793 4.74949 5.74836 4.87451 5.62334C4.99954 5.49831 5.16911 5.42807 5.34592 5.42807ZM10.6793 12.0947H5.34592C5.16911 12.0947 4.99954 12.0245 4.87451 11.8995C4.74949 11.7745 4.67925 11.6049 4.67925 11.4281C4.67925 11.2513 4.74949 11.0817 4.87451 10.9567C4.99954 10.8316 5.16911 10.7614 5.34592 10.7614H10.6793C10.8561 10.7614 11.0256 10.8316 11.1507 10.9567C11.2757 11.0817 11.3459 11.2513 11.3459 11.4281C11.3459 11.6049 11.2757 11.7745 11.1507 11.8995C11.0256 12.0245 10.8561 12.0947 10.6793 12.0947ZM10.6793 9.42807H5.34592C5.16911 9.42807 4.99954 9.35784 4.87451 9.23281C4.74949 9.10779 4.67925 8.93822 4.67925 8.76141C4.67925 8.5846 4.74949 8.41503 4.87451 8.29C4.99954 8.16498 5.16911 8.09474 5.34592 8.09474H10.6793C10.8561 8.09474 11.0256 8.16498 11.1507 8.29C11.2757 8.41503 11.3459 8.5846 11.3459 8.76141C11.3459 8.93822 11.2757 9.10779 11.1507 9.23281C11.0256 9.35784 10.8561 9.42807 10.6793 9.42807Z" fill="white"/>
</g>
<defs>
<clipPath id="clip0_306_8686">
<rect width="16" height="16" fill="white" transform="translate(0.012207 0.76123)"/>
</clipPath>
</defs>
</svg>
