<svg width="20" height="21" viewBox="0 0 20 21" fill="none" xmlns="http://www.w3.org/2000/svg">
<g clip-path="url(#clip0_904_13407)">
<path d="M19.201 10.4295C19.201 12.8877 18.2438 15.1988 16.5056 16.937C14.7674 18.6752 12.4563 19.6324 9.9981 19.6324C7.53989 19.6324 5.22884 18.6752 3.49063 16.937C1.75243 15.1988 0.795166 12.8877 0.795166 10.4295C0.795166 7.97129 1.75243 5.66023 3.49063 3.92203C5.22884 2.18383 7.53989 1.22656 9.9981 1.22656C12.4563 1.22656 14.7674 2.18383 16.5056 3.92203C18.2438 5.66023 19.201 7.97129 19.201 10.4295Z" fill="#DC0917"/>
<path d="M19.202 10.4298C19.202 12.888 18.2445 15.1989 16.5062 16.9372C14.768 18.6755 12.457 19.6329 9.99883 19.6329C8.12305 19.6329 6.3332 19.0755 4.81836 18.0392C6.37305 18.7161 8.08789 18.9552 9.81016 18.7169C12.2805 18.3751 14.4695 17.0915 15.9746 15.1032C17.4793 13.1146 18.1199 10.6591 17.7781 8.18916C17.4789 6.03018 16.4613 4.08604 14.882 2.62549C15.4637 2.99072 16.0086 3.42471 16.5062 3.92236C18.2445 5.66065 19.202 7.97158 19.202 10.4298Z" fill="#160204" fill-opacity="0.0745098"/>
<path opacity="0.25" d="M14.3727 2.32812C12.734 1.85547 10.9918 1.83281 9.3 2.28008C6.83398 2.93242 4.76992 4.50586 3.48711 6.71055C2.20469 8.91563 1.85742 11.4879 2.50977 13.9539C2.90781 15.4594 3.64922 16.8148 4.66836 17.9348C4.24877 17.6355 3.85483 17.3018 3.49063 16.9371C1.75234 15.1988 0.794922 12.8879 0.794922 10.4297C0.794922 7.97148 1.75234 5.66055 3.49063 3.92227C5.22891 2.18398 7.53984 1.22656 9.99805 1.22656C11.5508 1.22656 13.0445 1.60859 14.3727 2.32812Z" fill="white"/>
<path d="M11.982 13.4283C11.2323 14.1174 10.2548 14.496 9.23607 14.4963C3.87361 14.3559 3.87529 6.50344 9.23596 6.36328C10.2562 6.36375 11.2363 6.74305 11.9858 7.43508C12.0271 7.48086 12.0369 7.55027 12.0099 7.60563C11.9751 7.68125 11.8774 7.71602 11.8028 7.67848C11.3901 7.48047 10.9469 7.38008 10.4854 7.38008C8.80373 7.38008 7.43564 8.74816 7.43572 10.4298C7.38647 12.6251 9.84967 14.1661 11.8026 13.1812C11.8636 13.1517 11.9397 13.1664 11.9845 13.2166H11.9846C12.0018 13.2358 12.0142 13.2589 12.0205 13.2839C12.0267 13.3092 12.0265 13.3358 12.0197 13.361C12.013 13.3862 12 13.4094 11.982 13.4283ZM15.2695 11.3336L14.5764 10.3731L15.2567 9.36977C15.2738 9.34458 15.2826 9.31468 15.2818 9.28427C15.281 9.25385 15.2707 9.22445 15.2523 9.2002C15.2339 9.17597 15.2084 9.15811 15.1793 9.14913C15.1502 9.14015 15.1191 9.14049 15.0902 9.15012L13.9787 9.52113L13.2601 8.61606C13.2414 8.59248 13.2158 8.57531 13.1868 8.56691C13.1579 8.55851 13.127 8.55929 13.0986 8.56915C13.0701 8.57901 13.0454 8.59747 13.0279 8.62197C13.0103 8.64647 13.0008 8.67581 13.0006 8.70594L12.9965 9.84879L11.8728 10.2239C11.8439 10.2334 11.8188 10.2518 11.801 10.2764C11.7831 10.301 11.7734 10.3305 11.7732 10.3609C11.7729 10.3913 11.7822 10.4209 11.7998 10.4458C11.8173 10.4706 11.8421 10.4893 11.8708 10.4993L12.9832 10.8876L12.997 12.091C12.9974 12.1293 13.0129 12.1659 13.0402 12.1929C13.0674 12.2198 13.1042 12.2349 13.1425 12.2349C13.1651 12.2349 13.1875 12.2296 13.2077 12.2194C13.228 12.2092 13.2456 12.1945 13.2591 12.1764L13.9856 11.2034L15.1076 11.5576C15.1368 11.5669 15.1681 11.5667 15.1972 11.5571C15.2262 11.5475 15.2515 11.5289 15.2694 11.5041C15.2874 11.4793 15.297 11.4495 15.2971 11.4189C15.2971 11.3883 15.2874 11.3584 15.2695 11.3336Z" fill="#EFEFEF"/>
</g>
<defs>
<clipPath id="clip0_904_13407">
<rect width="20" height="20" fill="white" transform="translate(-0.00195312 0.429688)"/>
</clipPath>
</defs>
</svg>
