<svg width="16" height="19" viewBox="0 0 16 19" fill="none" xmlns="http://www.w3.org/2000/svg">
<path d="M14.9731 3.22988H12.5706C12.1998 1.42691 10.6137 0.132208 8.77304 0.129883H7.22302C5.38231 0.132208 3.79629 1.42691 3.42553 3.22988H1.02304C0.595017 3.22988 0.248047 3.57685 0.248047 4.00486C0.248047 4.43288 0.595017 4.77989 1.02304 4.77989H1.79803V14.8549C1.8006 16.9939 3.534 18.7274 5.67304 18.7299H10.3231C12.4621 18.7274 14.1955 16.9939 14.1981 14.8549V4.77989H14.9731C15.4011 4.77989 15.748 4.43292 15.748 4.0049C15.748 3.57688 15.4011 3.22988 14.9731 3.22988ZM7.22306 13.3049C7.22306 13.7329 6.87609 14.0799 6.44807 14.0799C6.02001 14.0799 5.67304 13.7329 5.67304 13.3049V8.65491C5.67304 8.22689 6.02001 7.87992 6.44803 7.87992C6.87605 7.87992 7.22302 8.22689 7.22302 8.65491V13.3049H7.22306ZM10.3231 13.3049C10.3231 13.7329 9.97608 14.0799 9.54806 14.0799C9.12004 14.0799 8.77307 13.7329 8.77307 13.3049V8.65491C8.77307 8.22689 9.12004 7.87992 9.54806 7.87992C9.97608 7.87992 10.3231 8.22689 10.3231 8.65491V13.3049ZM5.03058 3.22988C5.36022 2.30165 6.23806 1.68106 7.22306 1.67986H8.77307C9.75808 1.68106 10.6359 2.30165 10.9656 3.22988H5.03058Z" fill="#D74120"/>
</svg>
