<svg width="9" height="9" viewBox="0 0 9 9" fill="none" xmlns="http://www.w3.org/2000/svg">
<path d="M0.399914 6.93785C0.143929 7.19375 7.73041e-05 7.54086 0 7.90283L0 8.60336H0.700532C1.0625 8.60328 1.4096 8.45943 1.66551 8.20344L6.21846 3.6505L4.95286 2.3849L0.399914 6.93785ZM7.89762 0.705737C7.81453 0.622559 7.71586 0.556573 7.60725 0.511553C7.49864 0.466532 7.38222 0.443359 7.26465 0.443359C7.14708 0.443359 7.03066 0.466532 6.92205 0.511553C6.81344 0.556573 6.71477 0.622559 6.63168 0.705737L5.43535 1.90241L6.70095 3.16801L7.89762 1.97168C7.9808 1.88859 8.04679 1.78991 8.09181 1.68131C8.13683 1.5727 8.16 1.45628 8.16 1.33871C8.16 1.22114 8.13683 1.10472 8.09181 0.996109C8.04679 0.8875 7.9808 0.788829 7.89762 0.705737Z" fill="white"/>
</svg>
