<svg width="20" height="20" viewBox="0 0 20 20" fill="none" xmlns="http://www.w3.org/2000/svg">
<path d="M15.5397 4.09635H14.6689C14.4851 3.20289 13.999 2.40009 13.2924 1.82326C12.5858 1.24643 11.7019 0.930839 10.7897 0.929688L9.20638 0.929688C8.29422 0.930839 7.41034 1.24643 6.70372 1.82326C5.99711 2.40009 5.51096 3.20289 5.32721 4.09635H4.45638C3.40695 4.09761 2.40086 4.51505 1.6588 5.25711C0.916745 5.99917 0.499304 7.00526 0.498047 8.05469L0.498047 10.4297H19.498V8.05469C19.4968 7.00526 19.0793 5.99917 18.3373 5.25711C17.5952 4.51505 16.5891 4.09761 15.5397 4.09635ZM6.97705 4.09635C7.1402 3.63489 7.44194 3.23509 7.84099 2.95167C8.24005 2.66825 8.71692 2.51505 9.20638 2.51302H10.7897C11.2792 2.51505 11.756 2.66825 12.1551 2.95167C12.5542 3.23509 12.8559 3.63489 13.019 4.09635H6.97705ZM10.7897 12.8047C10.7897 13.0147 10.7063 13.216 10.5578 13.3645C10.4094 13.5129 10.208 13.5964 9.99805 13.5964C9.78808 13.5964 9.58672 13.5129 9.43825 13.3645C9.28979 13.216 9.20638 13.0147 9.20638 12.8047V12.013H0.498047V15.9714C0.499304 17.0208 0.916745 18.0269 1.6588 18.7689C2.40086 19.511 3.40695 19.9284 4.45638 19.9297H15.5397C16.5891 19.9284 17.5952 19.511 18.3373 18.7689C19.0793 18.0269 19.4968 17.0208 19.498 15.9714V12.013H10.7897V12.8047Z" fill="#408F8C"/>
</svg>
