<svg width="17" height="16" viewBox="0 0 17 16" fill="none" xmlns="http://www.w3.org/2000/svg">
<path d="M12.3644 7.78848C10.268 7.78848 8.56436 9.49214 8.56436 11.5885C8.56436 13.6848 10.268 15.3885 12.3644 15.3885C14.4607 15.3885 16.1644 13.6848 16.1644 11.5885C16.1644 9.49214 14.4607 7.78848 12.3644 7.78848ZM12.9977 13.4885C12.9977 13.8368 12.7127 14.1218 12.3644 14.1218C12.016 14.1218 11.731 13.8368 11.731 13.4885V12.2218C11.731 11.8735 12.016 11.5885 12.3644 11.5885C12.7127 11.5885 12.9977 11.8735 12.9977 12.2218V13.4885ZM12.3644 10.9551C11.8387 10.9551 11.4144 10.5308 11.4144 10.0051C11.4144 9.47948 11.8387 9.05514 12.3644 9.05514C12.89 9.05514 13.3144 9.47948 13.3144 10.0051C13.3144 10.5308 12.89 10.9551 12.3644 10.9551ZM7.98169 14.1218H4.13102C2.38302 14.1218 0.964355 12.7031 0.964355 10.9551V3.35514C0.964355 1.60714 2.38302 0.188477 4.13102 0.188477H7.29769V3.35514C7.29769 4.40014 8.15269 5.25514 9.19769 5.25514H12.3644V6.52181C9.57136 6.52181 7.29769 8.79548 7.29769 11.5885C7.29769 12.5131 7.55102 13.3745 7.98169 14.1218ZM8.56436 3.35514V0.283477C8.85569 0.378477 9.12169 0.530477 9.34336 0.74581L11.8134 3.24114C12.0224 3.45014 12.168 3.70348 12.2567 3.98214H9.19769C8.84936 3.98214 8.56436 3.69714 8.56436 3.34881V3.35514Z" fill="#4E6199"/>
</svg>
