<svg width="19" height="19" viewBox="0 0 19 19" fill="none" xmlns="http://www.w3.org/2000/svg">
<path d="M0.791667 19C0.581704 19 0.38034 18.9166 0.231874 18.7681C0.0834075 18.6197 0 18.4183 0 18.2083V3.16667C0 2.32681 0.33363 1.52136 0.927495 0.927495C1.52136 0.33363 2.32681 0 3.16667 0L8.70833 0C9.54819 0 10.3536 0.33363 10.9475 0.927495C11.5414 1.52136 11.875 2.32681 11.875 3.16667V7.125C11.875 7.96485 11.5414 8.77031 10.9475 9.36417C10.3536 9.95804 9.54819 10.2917 8.70833 10.2917H1.58333V18.2083C1.58333 18.4183 1.49993 18.6197 1.35146 18.7681C1.20299 18.9166 1.00163 19 0.791667 19ZM15.8333 3.16667H13.4583V7.125C13.4571 8.38439 12.9562 9.59184 12.0657 10.4824C11.1752 11.3729 9.96773 11.8737 8.70833 11.875H8.35683C8.63262 12.3548 9.02969 12.7536 9.50823 13.0315C9.98677 13.3094 10.53 13.4566 11.0833 13.4583H15.8333C16.6732 13.4583 17.4786 13.1247 18.0725 12.5308C18.6664 11.937 19 11.1315 19 10.2917V6.33333C19 5.49348 18.6664 4.68803 18.0725 4.09416C17.4786 3.5003 16.6732 3.16667 15.8333 3.16667Z" fill="#408F8C"/>
</svg>
