<svg width="17" height="15" viewBox="0 0 17 15" fill="none" xmlns="http://www.w3.org/2000/svg">
<path d="M11.9147 0.520691C11.1615 0.532407 10.4247 0.742665 9.77879 1.13023C9.13284 1.5178 8.6006 2.06895 8.23581 2.72803C7.87103 2.06895 7.33878 1.5178 6.69284 1.13023C6.04689 0.742665 5.31011 0.532407 4.55691 0.520691C3.35621 0.572858 2.22495 1.09811 1.41029 1.98171C0.595635 2.8653 0.163792 4.0354 0.20911 5.23638C0.20911 8.27783 3.41043 11.5995 6.09536 13.8517C6.69483 14.3555 7.45278 14.6316 8.23581 14.6316C9.01885 14.6316 9.77679 14.3555 10.3763 13.8517C13.0612 11.5995 16.2625 8.27783 16.2625 5.23638C16.3078 4.0354 15.876 2.8653 15.0613 1.98171C14.2467 1.09811 13.1154 0.572858 11.9147 0.520691Z" fill="white"/>
</svg>
