<svg width="57" height="57" viewBox="0 0 57 57" fill="none" xmlns="http://www.w3.org/2000/svg">
<rect x="4.97266" y="4.77734" width="48" height="48" rx="24" fill="#FEE4E2"/>
<rect x="4.97266" y="4.77734" width="48" height="48" rx="24" stroke="#FEF3F2" stroke-width="8"/>
<g clip-path="url(#clip0_1621_36692)">
<path d="M29.4727 40.7773C31.846 40.7773 34.1661 40.0736 36.1395 38.755C38.1129 37.4364 39.651 35.5623 40.5592 33.3696C41.4675 31.1768 41.7051 28.764 41.2421 26.4363C40.7791 24.1085 39.6362 21.9703 37.9579 20.2921C36.2797 18.6138 34.1415 17.4709 31.8137 17.0079C29.486 16.5449 27.0732 16.7825 24.8805 17.6908C22.6877 18.599 20.8136 20.1371 19.495 22.1105C18.1764 24.0839 17.4727 26.404 17.4727 28.7773C17.4761 31.9589 18.7415 35.0091 20.9912 37.2588C23.2409 39.5085 26.2911 40.7739 29.4727 40.7773ZM29.4727 21.7773C29.7693 21.7773 30.0593 21.8653 30.306 22.0301C30.5527 22.195 30.7449 22.4292 30.8585 22.7033C30.972 22.9774 31.0017 23.279 30.9438 23.57C30.886 23.861 30.7431 24.1282 30.5333 24.338C30.3235 24.5478 30.0563 24.6906 29.7653 24.7485C29.4743 24.8064 29.1727 24.7767 28.8986 24.6632C28.6245 24.5496 28.3903 24.3574 28.2255 24.1107C28.0606 23.864 27.9727 23.574 27.9727 23.2773C27.9727 22.8795 28.1307 22.498 28.412 22.2167C28.6933 21.9354 29.0748 21.7773 29.4727 21.7773ZM28.4727 26.7773H29.4727C30.0031 26.7773 30.5118 26.9881 30.8869 27.3631C31.2619 27.7382 31.4727 28.2469 31.4727 28.7773V34.7773C31.4727 35.0426 31.3673 35.2969 31.1798 35.4845C30.9922 35.672 30.7379 35.7773 30.4727 35.7773C30.2074 35.7773 29.9531 35.672 29.7656 35.4845C29.578 35.2969 29.4727 35.0426 29.4727 34.7773V28.7773H28.4727C28.2074 28.7773 27.9531 28.672 27.7656 28.4845C27.578 28.2969 27.4727 28.0426 27.4727 27.7773C27.4727 27.5121 27.578 27.2578 27.7656 27.0702C27.9531 26.8827 28.2074 26.7773 28.4727 26.7773Z" fill="#D74120"/>
</g>
<defs>
<clipPath id="clip0_1621_36692">
<rect width="24" height="24" fill="white" transform="translate(17.4727 16.7773)"/>
</clipPath>
</defs>
</svg>
