<svg width="207" height="31" viewBox="0 0 207 31" fill="none" xmlns="http://www.w3.org/2000/svg">
<path d="M88.4832 3.18055H85.0476V28.0203H88.4832V3.18055Z" fill="#414042"/>
<path d="M95.6816 28.0203L90.2009 22.0876C89.5092 21.2898 89.1264 20.5958 89.1264 19.5513C89.1264 18.5068 89.7513 17.6099 90.4453 16.8813L95.9906 11.0201H99.8412L92.532 19.0002C92.4484 19.0539 92.3773 19.1249 92.3236 19.2084C92.2699 19.292 92.2348 19.3861 92.2207 19.4844C92.2207 19.6574 92.359 19.798 92.532 19.971L99.8181 28.0203H95.6816Z" fill="#408F8C"/>
<path d="M42.9908 16.3625C42.9908 9.67582 48.2641 4.37261 54.8216 4.37261C58.8105 4.37261 62.4536 6.42011 64.2221 9.81878L61.3422 11.4835C59.9888 9.15933 57.6646 7.73669 54.6833 7.73669C50.1732 7.73669 46.6339 11.4835 46.6339 16.374C46.6339 21.336 50.1386 25.1174 54.6833 25.1174C57.6646 25.1174 60.0233 23.6947 61.3422 21.3705L64.2221 23.0353C62.4536 26.4363 58.8105 28.4469 54.8216 28.4469C48.2618 28.4353 42.9908 23.1275 42.9908 16.3625Z" fill="#414042"/>
<path d="M64.2567 19.4868C64.2567 14.6286 68.1419 10.605 73.3114 10.605C78.4808 10.605 82.366 14.421 82.366 19.4868V28.018H79.1034V25.0367C77.8214 27.1118 75.5664 28.4353 72.7903 28.4353C67.8606 28.4353 64.2567 24.4118 64.2567 19.4868ZM78.9305 19.5213C78.9236 18.4115 78.5883 17.3285 77.9667 16.409C77.3451 15.4895 76.4652 14.7747 75.4378 14.3547C74.4105 13.9347 73.2818 13.8283 72.1941 14.0491C71.1064 14.2698 70.1084 14.8076 69.326 15.5948C68.5436 16.382 68.0119 17.3833 67.7978 18.4724C67.5838 19.5614 67.6971 20.6894 68.1234 21.7142C68.5497 22.7389 69.2699 23.6145 70.1932 24.2304C71.1165 24.8463 72.2015 25.175 73.3114 25.175C74.0523 25.1756 74.7859 25.0296 75.4701 24.7452C76.1542 24.4609 76.7753 24.0438 77.2975 23.5182C77.8197 22.9926 78.2326 22.3688 78.5125 21.6828C78.7924 20.9968 78.9336 20.2622 78.9281 19.5213H78.9305Z" fill="#414042"/>
<path d="M99.5368 19.4153C99.5368 14.5248 103.042 10.5359 108.14 10.5359C113.274 10.5359 116.466 14.2481 116.466 19.0002V20.3837H102.862C103.242 23.2981 105.463 25.3433 108.515 25.3433C110.591 25.3433 112.47 24.4418 113.475 22.5764L116.113 23.9276C114.621 26.8421 111.879 28.403 108.55 28.403C103.387 28.4007 99.5368 24.6539 99.5368 19.4153ZM113.032 18.1679C112.894 15.4678 110.916 13.6232 108.105 13.6232C105.227 13.6232 103.353 15.6362 103.007 18.1679H113.032Z" fill="#414042"/>
<path d="M118.79 23.614L119.867 23.0583C120.941 25.5578 123.438 27.0127 126.597 27.0127C130.134 27.0127 132.841 25.0713 132.841 21.8455C132.841 18.3869 129.754 17.6468 126.491 16.9182C122.989 16.1204 119.242 15.2188 119.242 10.8126C119.242 7.35394 122.502 4.70695 126.249 4.70695C129.405 4.70695 132.285 6.26794 133.5 9.21698L132.458 9.80725C131.349 7.31013 129.094 5.92207 126.214 5.92207C123.196 5.92207 120.526 8.03875 120.526 10.8126C120.526 14.2481 123.648 14.9767 126.874 15.7053C130.376 16.5377 134.123 17.4393 134.123 21.8455C134.123 25.7653 130.895 28.2278 126.597 28.2278C123.092 28.2278 120.005 26.5631 118.79 23.614Z" fill="#414042"/>
<path d="M137.976 28.0203V3.63247H139.189V15.3918C140.265 12.7563 142.901 10.9509 146.057 10.9509C150.706 10.9509 153.586 14.3519 153.586 19.2516V28.0295H152.371V19.3115C152.371 15.4609 150.222 12.1314 145.954 12.1314C142.103 12.1314 139.189 15.288 139.189 19.5213V28.0203H137.976Z" fill="#414042"/>
<path d="M156.083 19.6182C156.064 18.4673 156.275 17.3242 156.702 16.2555C157.129 15.1868 157.765 14.2139 158.572 13.3934C159.38 12.5729 160.342 11.9212 161.404 11.4764C162.465 11.0316 163.605 10.8026 164.756 10.8026C165.907 10.8026 167.046 11.0316 168.108 11.4764C169.17 11.9212 170.132 12.5729 170.939 13.3934C171.746 14.2139 172.382 15.1868 172.81 16.2555C173.237 17.3242 173.448 18.4673 173.429 19.6182V28.0134H172.251V23.4019C171.607 24.8796 170.541 26.1347 169.188 27.0106C167.835 27.8865 166.254 28.3444 164.642 28.327C159.83 28.3316 156.083 24.4118 156.083 19.6182ZM172.223 19.6182C172.223 17.6424 171.438 15.7475 170.041 14.3503C168.644 12.9532 166.749 12.1683 164.773 12.1683C162.797 12.1683 160.902 12.9532 159.505 14.3503C158.108 15.7475 157.323 17.6424 157.323 19.6182C157.323 23.7455 160.618 27.1464 164.748 27.1464C166.735 27.1354 168.637 26.3368 170.037 24.9256C171.436 23.5143 172.219 21.6057 172.214 19.6182H172.223Z" fill="#414042"/>
<path d="M177.28 28.0203V17.4738C177.28 13.6924 179.5 11.1261 182.97 11.1261C183.945 11.1109 184.91 11.335 185.779 11.7787V13.0607C184.956 12.5528 184.006 12.2882 183.039 12.2974C180.272 12.2974 178.495 14.3726 178.495 17.5361V28.0134L177.28 28.0203Z" fill="#414042"/>
<path d="M185.015 19.6597C185.015 14.8361 188.312 10.9509 193.099 10.9509C197.817 10.9509 201.008 14.3173 201.008 19.104V20.0055H186.265C186.403 23.9945 189.387 27.1534 193.48 27.1534C195.908 27.1534 198.163 26.1803 199.516 23.8216L200.487 24.4118C198.926 27.0819 196.36 28.3316 193.48 28.3316C188.658 28.3316 185.015 24.5156 185.015 19.6597ZM199.795 18.968C199.795 14.8753 196.984 12.1337 193.108 12.1337C189.232 12.1337 186.585 15.152 186.309 18.968H199.795Z" fill="#414042"/>
<path d="M206.355 8.1817L198.416 8.37077C198.342 8.37877 198.271 8.40662 198.211 8.45139C198.151 8.49617 198.104 8.55623 198.076 8.62529C198.047 8.69435 198.037 8.76987 198.048 8.84394C198.058 8.91802 198.088 8.98792 198.135 9.04635C198.924 9.13315 199.684 9.39477 200.36 9.81219C201.036 10.2296 201.61 10.7923 202.04 11.4595C202.471 12.1266 202.748 12.8813 202.851 13.6688C202.953 14.4563 202.879 15.2568 202.633 16.012C202.678 16.0755 202.735 16.1289 202.801 16.1686C202.867 16.2084 202.942 16.2336 203.018 16.2426C203.091 16.2461 203.162 16.2278 203.224 16.1899C203.286 16.1521 203.335 16.0965 203.364 16.0304L206.807 8.88264C206.84 8.80703 206.855 8.72421 206.848 8.64166C206.842 8.55911 206.815 8.47944 206.77 8.40985C206.726 8.34027 206.664 8.28297 206.592 8.24313C206.519 8.20329 206.438 8.18218 206.355 8.1817Z" fill="#408F8C"/>
<path d="M5.14211 21.7533C5.14211 22.777 5.05218 23.7431 5.16286 24.6862C5.3427 26.2426 6.6639 27.3078 8.29636 27.3124C13.2368 27.3217 18.1772 27.3217 23.1177 27.3124C25.6194 27.3124 28.1211 27.3124 30.6228 27.3124C31.7757 27.3124 32.5804 26.7614 32.8733 25.8022C32.9318 25.6069 32.9621 25.4042 32.9632 25.2004C32.9793 24.2781 32.9632 23.3558 32.9908 22.415C32.9908 21.9769 32.8041 21.7787 32.3867 21.7602C32.2761 21.7602 32.1677 21.7602 32.057 21.7602H5.14211V21.7533Z" fill="#414042"/>
<path d="M9.09184 29.2677C7.74759 29.2493 6.43332 29.1455 5.24586 28.4676C3.75635 27.6191 2.91245 26.3763 2.91937 24.6009C2.9332 20.8725 2.91937 17.1441 2.91937 13.4157C2.91937 11.6103 3.86011 10.6489 5.68626 10.6489C8.73906 10.6489 11.7896 10.6627 14.8424 10.6627C20.6482 10.6627 26.4541 10.6627 32.2599 10.6627H32.8018L32.8364 10.5359L20.8188 5.58314C20.1755 7.3355 19.0157 8.56446 17.2426 9.1409C16.0099 9.56368 14.6646 9.51771 13.4635 9.01178C12.8098 8.75155 12.216 8.36071 11.7184 7.86317C11.2209 7.36562 10.83 6.77182 10.5698 6.11807C10.0164 4.77843 10.0879 3.41805 10.6275 2.06919L10.5168 1.97004C9.50226 2.58106 8.46007 3.14597 7.48243 3.81463C4.96456 5.53011 2.87095 7.65139 1.4875 10.4091C1.00839 11.3689 0.762695 12.4283 0.770416 13.5011C0.770416 17.1902 0.770416 20.8956 0.781944 24.594C0.781944 26.9551 2.06163 28.938 4.06071 29.7035C5.50641 30.2569 6.93597 30.0125 8.34939 29.5467C8.60302 29.4614 8.84512 29.3599 9.09184 29.2677Z" fill="#408F8C"/>
<path d="M32.9562 18.4653C32.9562 16.9758 32.9562 15.5462 32.9562 14.119C32.9562 13.6578 32.5804 13.4803 32.1815 13.4549C31.5198 13.3927 30.858 13.3927 30.1986 13.3927C22.7895 13.3927 15.3819 13.3927 7.97585 13.3927C7.04202 13.3927 6.16815 13.5426 5.61708 14.3888C5.4035 14.6969 5.26456 15.0506 5.21127 15.4217C5.13518 16.2334 5.13748 17.0542 5.13287 17.8704C5.13287 18.3316 5.43723 18.4538 5.86148 18.4538C9.88731 18.4538 13.9131 18.4538 17.939 18.4538C22.7041 18.4538 27.4693 18.4538 32.2345 18.4538L32.9562 18.4653Z" fill="#414042"/>
<path d="M15.7555 7.42081C16.2401 7.42875 16.7214 7.34045 17.1717 7.16104C17.6219 6.98163 18.0321 6.71466 18.3785 6.37561C18.7248 6.03655 19.0004 5.63215 19.1894 5.18582C19.3783 4.73949 19.4769 4.26011 19.4792 3.77543C19.4884 3.2787 19.397 2.78523 19.2108 2.32465C19.0245 1.86406 18.7472 1.44584 18.3953 1.09508C18.0435 0.744311 17.6244 0.468224 17.1633 0.283379C16.7021 0.0985341 16.2084 0.00873894 15.7117 0.0193801C14.7326 0.0414582 13.8004 0.443195 13.1121 1.13975C12.4237 1.8363 12.033 2.77313 12.0225 3.75238C12.0364 4.73215 12.4362 5.66689 13.1351 6.35369C13.834 7.0405 14.7756 7.42395 15.7555 7.42081Z" fill="#414042"/>
</svg>
