<svg width="20" height="20" viewBox="0 0 20 20" fill="none" xmlns="http://www.w3.org/2000/svg">
<path d="M18.2129 7.7017C18.5278 7.7017 18.8299 7.57659 19.0526 7.35389C19.2753 7.1312 19.4004 6.82915 19.4004 6.5142C19.4004 6.19926 19.2753 5.89721 19.0526 5.67452C18.8299 5.45182 18.5278 5.3267 18.2129 5.3267H15.3407L15.826 1.93204C15.8481 1.77765 15.8395 1.62044 15.8008 1.46937C15.762 1.3183 15.6939 1.17634 15.6004 1.05159C15.5068 0.926837 15.3895 0.821739 15.2553 0.742296C15.1211 0.662853 14.9726 0.61062 14.8182 0.58858C14.6638 0.56654 14.5066 0.575124 14.3556 0.613842C14.2045 0.65256 14.0625 0.720654 13.9378 0.814236C13.813 0.907818 13.7079 1.02506 13.6285 1.15925C13.549 1.29345 13.4968 1.44199 13.4748 1.59637L12.942 5.3267H8.21572L8.70102 1.93204C8.72306 1.77765 8.71447 1.62044 8.67575 1.46937C8.63704 1.3183 8.56894 1.17634 8.47536 1.05159C8.38178 0.926837 8.26454 0.821739 8.13034 0.742296C7.99614 0.662853 7.84761 0.61062 7.69322 0.58858C7.53884 0.56654 7.38162 0.575124 7.23056 0.613842C7.07949 0.65256 6.93753 0.720654 6.81277 0.814236C6.68802 0.907818 6.58293 1.02506 6.50348 1.15925C6.42404 1.29345 6.37181 1.44199 6.34977 1.59637L5.81697 5.3267H2.37956C2.06461 5.3267 1.76257 5.45182 1.53987 5.67452C1.31717 5.89721 1.19206 6.19926 1.19206 6.5142C1.19206 6.82915 1.31717 7.1312 1.53987 7.35389C1.76257 7.57659 2.06461 7.7017 2.37956 7.7017H5.47735L4.79889 12.4517H1.58789C1.27295 12.4517 0.970901 12.5768 0.748201 12.7995C0.525502 13.0222 0.400391 13.3243 0.400391 13.6392C0.400391 13.9542 0.525502 14.2562 0.748201 14.4789C0.970901 14.7016 1.27295 14.8267 1.58789 14.8267H4.46006L3.97477 18.2214C3.95273 18.3758 3.96131 18.533 4.00003 18.684C4.03875 18.8351 4.10684 18.9771 4.20042 19.1018C4.38942 19.3538 4.67076 19.5203 4.98256 19.5648C5.29435 19.6093 5.61106 19.5282 5.86301 19.3392C5.98776 19.2456 6.09286 19.1284 6.1723 18.9942C6.25174 18.86 6.30398 18.7114 6.32602 18.557L6.85881 14.8267H11.5851L11.0998 18.2214C11.0553 18.5332 11.1364 18.8499 11.3254 19.1018C11.5144 19.3538 11.7958 19.5203 12.1076 19.5648C12.4194 19.6093 12.7361 19.5282 12.988 19.3392C13.24 19.1502 13.4065 18.8688 13.451 18.557L13.9838 14.8267H17.4212C17.7362 14.8267 18.0382 14.7016 18.2609 14.4789C18.4836 14.2562 18.6087 13.9542 18.6087 13.6392C18.6087 13.3243 18.4836 13.0222 18.2609 12.7995C18.0382 12.5768 17.7362 12.4517 17.4212 12.4517H14.3234L15.0019 7.7017H18.2129ZM11.9239 12.4517H7.19843L7.87689 7.7017H12.6023L11.9239 12.4517Z" fill="#408F8C"/>
</svg>
