<svg width="19" height="20" viewBox="0 0 19 20" fill="none" xmlns="http://www.w3.org/2000/svg">
<path d="M12.6561 10.4836V8.34611C12.6561 8.13615 12.7395 7.93478 12.8879 7.78632C13.0364 7.63785 13.2378 7.55444 13.4477 7.55444H14.2394C14.4494 7.55444 14.6507 7.47104 14.7992 7.32257C14.9477 7.1741 15.0311 6.97274 15.0311 6.76278V5.97111C15.0311 5.76115 15.1145 5.55978 15.2629 5.41132C15.4114 5.26285 15.6128 5.17944 15.8227 5.17944H17.9484C18.1028 5.17869 18.2537 5.1335 18.3832 5.04927C18.5126 4.96504 18.6151 4.84533 18.6783 4.70444C18.9457 4.11558 19.0485 3.46529 18.9759 2.82265C18.8855 2.15356 18.5532 1.54072 18.0419 1.09982C17.5305 0.658919 16.8755 0.420457 16.2004 0.429444C15.2478 0.429505 14.3342 0.807964 13.6607 1.48157L7.4002 7.74049C6.39105 7.47833 5.33009 7.49145 4.32774 7.77849C2.9487 8.16845 1.75724 9.04403 0.973208 10.2437C0.18918 11.4433 -0.134502 12.886 0.0618895 14.3056C0.258281 15.7252 0.961492 17.0259 2.04176 17.9676C3.12203 18.9093 4.50645 19.4285 5.93957 19.4294C6.14688 19.4292 6.35404 19.4184 6.56024 19.397C7.73994 19.2685 8.85446 18.7909 9.76105 18.0252C10.6677 17.2595 11.3251 16.2406 11.6491 15.099C11.937 14.097 11.9499 13.036 11.6863 12.0274L12.2009 11.5128C12.4745 11.2377 12.6367 10.8711 12.6561 10.4836ZM4.35228 16.2628C4.11741 16.2628 3.88782 16.1931 3.69254 16.0626C3.49725 15.9322 3.34505 15.7467 3.25517 15.5297C3.16529 15.3127 3.14177 15.074 3.18759 14.8436C3.23341 14.6133 3.34651 14.4017 3.51259 14.2356C3.67866 14.0695 3.89026 13.9564 4.12061 13.9106C4.35096 13.8648 4.58973 13.8883 4.80671 13.9782C5.0237 14.068 5.20916 14.2203 5.33965 14.4155C5.47013 14.6108 5.53978 14.8404 5.53978 15.0753C5.53978 15.3902 5.41467 15.6923 5.19197 15.915C4.96927 16.1377 4.66722 16.2628 4.35228 16.2628Z" fill="#408F8C"/>
</svg>
