<svg width="15" height="17" viewBox="0 0 15 17" fill="none" xmlns="http://www.w3.org/2000/svg">
<path d="M7.49224 16.3106C3.86315 16.3106 0.910645 13.3581 0.910645 9.72904C0.910645 7.51893 1.90118 6.13614 3.38862 4.74018L4.99979 3.22707L4.47853 5.37465C4.29754 6.12232 4.25015 8.40613 5.2104 9.62702C5.61254 10.1384 6.14367 10.3872 6.83408 10.3872C7.56267 10.3872 8.14119 9.80538 8.1504 9.06232C8.15962 8.32716 7.84897 7.71836 7.51989 7.07468C7.18291 6.4152 6.83408 5.734 6.83408 4.90604C6.83408 3.12177 7.76341 1.50467 7.8029 1.43688L8.34785 0.500977L8.92769 1.41648C9.48647 2.29775 10.2401 3.11914 10.97 3.91354C12.4962 5.57473 14.0745 7.29384 14.0745 9.72969C14.0745 13.3588 11.122 16.3113 7.4929 16.3113L7.49224 16.3106Z" fill="#4E6199"/>
</svg>
