<svg width="15" height="14" viewBox="0 0 15 14" fill="none" xmlns="http://www.w3.org/2000/svg">
<path d="M14.0675 12.4979H13.4093V5.08036C13.4093 4.6723 13.225 4.29057 12.9025 4.04046L12.093 3.40863L12.0798 1.79614C12.0798 1.43415 11.7836 1.14456 11.4217 1.14456H9.17733L8.2954 0.460074C7.82152 0.0849232 7.1502 0.0849232 6.67633 0.460074L2.06921 4.04046C1.74671 4.29057 1.56242 4.6723 1.56242 5.07377L1.52952 12.4979H0.904264C0.634419 12.4979 0.410645 12.7216 0.410645 12.9915C0.410645 13.2613 0.634419 13.4851 0.904264 13.4851H14.0675C14.3373 13.4851 14.5611 13.2613 14.5611 12.9915C14.5611 12.7216 14.3373 12.4979 14.0675 12.4979ZM3.86598 6.90343V5.91619C3.86598 5.5542 4.16215 5.25803 4.52414 5.25803H5.84046C6.20245 5.25803 6.49862 5.5542 6.49862 5.91619V6.90343C6.49862 7.26541 6.20245 7.56159 5.84046 7.56159H4.52414C4.16215 7.56159 3.86598 7.26541 3.86598 6.90343ZM9.13126 12.4979H5.84046V10.6878C5.84046 10.1416 6.28143 9.70061 6.8277 9.70061H8.14402C8.69029 9.70061 9.13126 10.1416 9.13126 10.6878V12.4979ZM11.1057 6.90343C11.1057 7.26541 10.8096 7.56159 10.4476 7.56159H9.13126C8.76927 7.56159 8.4731 7.26541 8.4731 6.90343V5.91619C8.4731 5.5542 8.76927 5.25803 9.13126 5.25803H10.4476C10.8096 5.25803 11.1057 5.5542 11.1057 5.91619V6.90343Z" fill="#4E6199"/>
</svg>
