<svg width="19" height="19" viewBox="0 0 19 19" fill="none" xmlns="http://www.w3.org/2000/svg">
<path d="M16.7096 9.1479V15.1104C16.7096 15.5229 16.5628 15.876 16.269 16.1698C15.9753 16.4635 15.6221 16.6104 15.2096 16.6104H4.70964C4.29714 16.6104 3.94402 16.4635 3.65027 16.1698C3.35652 15.876 3.20964 15.5229 3.20964 15.1104V9.1479C2.92214 8.8854 2.70027 8.5479 2.54402 8.1354C2.38777 7.7229 2.38464 7.2729 2.53464 6.7854L3.32214 4.2354C3.42214 3.9104 3.60027 3.64165 3.85652 3.42915C4.11277 3.21665 4.40964 3.1104 4.74714 3.1104H15.1721C15.5096 3.1104 15.8034 3.21352 16.0534 3.41977C16.3034 3.62602 16.4846 3.8979 16.5971 4.2354L17.3846 6.7854C17.5346 7.2729 17.5315 7.71665 17.3753 8.11665C17.219 8.51665 16.9971 8.8604 16.7096 9.1479ZM11.6096 8.3604C11.9471 8.3604 12.2034 8.24477 12.3784 8.01352C12.5534 7.78227 12.6221 7.5229 12.5846 7.2354L12.1721 4.6104H10.7096V7.3854C10.7096 7.6479 10.7971 7.87602 10.9721 8.06977C11.1471 8.26352 11.3596 8.3604 11.6096 8.3604ZM8.23464 8.3604C8.52214 8.3604 8.75652 8.26352 8.93777 8.06977C9.11902 7.87602 9.20964 7.6479 9.20964 7.3854V4.6104H7.74714L7.33464 7.2354C7.28464 7.5354 7.35027 7.7979 7.53152 8.0229C7.71277 8.2479 7.94714 8.3604 8.23464 8.3604ZM4.89714 8.3604C5.12214 8.3604 5.31902 8.27915 5.48777 8.11665C5.65652 7.95415 5.75964 7.7479 5.79714 7.4979L6.20964 4.6104H4.74714L3.99714 7.1229C3.92214 7.3729 3.96277 7.64165 4.11902 7.92915C4.27527 8.21665 4.53464 8.3604 4.89714 8.3604ZM15.0221 8.3604C15.3846 8.3604 15.6471 8.21665 15.8096 7.92915C15.9721 7.64165 16.0096 7.3729 15.9221 7.1229L15.1346 4.6104H13.7096L14.1221 7.4979C14.1596 7.7479 14.2628 7.95415 14.4315 8.11665C14.6003 8.27915 14.7971 8.3604 15.0221 8.3604Z" fill="#408F8C"/>
</svg>
