<svg width="18" height="19" viewBox="0 0 18 19" fill="none" xmlns="http://www.w3.org/2000/svg">
<path d="M17.998 7.17969V14.6797C17.998 16.7474 16.3158 18.4297 14.248 18.4297H3.74805C1.6803 18.4297 -0.00195312 16.7474 -0.00195312 14.6797V7.17969C-0.00195312 5.11194 1.6803 3.42969 3.74805 3.42969H6.74805V2.67969C6.74805 1.43919 7.75755 0.429688 8.99805 0.429688C10.2385 0.429688 11.248 1.43919 11.248 2.67969V3.42969H14.248C16.3158 3.42969 17.998 5.11194 17.998 7.17969ZM8.24805 5.67969H9.7488V2.67969C9.74263 2.48478 9.66088 2.29992 9.52083 2.16423C9.38078 2.02854 9.19342 1.95266 8.99842 1.95266C8.80342 1.95266 8.61607 2.02854 8.47602 2.16423C8.33597 2.29992 8.25421 2.48478 8.24805 2.67969V5.67969ZM7.12305 9.80469C7.12305 10.8389 7.9638 11.6797 8.99805 11.6797C10.0323 11.6797 10.873 10.8389 10.873 9.80469C10.873 8.77044 10.0323 7.92969 8.99805 7.92969C7.9638 7.92969 7.12305 8.77044 7.12305 9.80469ZM12.724 15.2429C12.3048 13.6124 10.738 12.4297 8.99805 12.4297C7.25805 12.4297 5.69055 13.6124 5.27205 15.2429C5.24399 15.3394 5.23561 15.4405 5.24738 15.5403C5.25916 15.6401 5.29086 15.7364 5.34061 15.8237C5.39035 15.911 5.45713 15.9874 5.53696 16.0484C5.6168 16.1094 5.70808 16.1537 5.80537 16.1787C5.90267 16.2037 6.004 16.209 6.10335 16.1941C6.20271 16.1792 6.29806 16.1445 6.38374 16.0921C6.46943 16.0396 6.54371 15.9705 6.60216 15.8888C6.66062 15.8071 6.70207 15.7145 6.72405 15.6164C6.97155 14.6549 7.9488 13.9297 8.99805 13.9297C10.0473 13.9297 11.0245 14.6549 11.272 15.6164C11.322 15.8086 11.4461 15.9732 11.6172 16.074C11.7883 16.1748 11.9924 16.2036 12.1847 16.1542C12.377 16.1047 12.5419 15.981 12.6431 15.8102C12.7444 15.6394 12.773 15.4354 12.724 15.2429Z" fill="#408F8C"/>
</svg>
