<svg width="20" height="20" viewBox="0 0 20 20" fill="none" xmlns="http://www.w3.org/2000/svg">
<path d="M15.4421 3.24333H12.2754V2.45166C12.2754 1.82177 12.0252 1.21768 11.5798 0.772282C11.1344 0.326883 10.5303 0.0766602 9.90039 0.0766602C9.2705 0.0766602 8.66641 0.326883 8.22101 0.772282C7.77561 1.21768 7.52539 1.82177 7.52539 2.45166V3.24333H4.35872C3.30929 3.24458 2.30321 3.66203 1.56115 4.40408C0.819089 5.14614 0.401648 6.15223 0.400391 7.20166L0.400391 15.1183C0.401648 16.1678 0.819089 17.1738 1.56115 17.9159C2.30321 18.658 3.30929 19.0754 4.35872 19.0767H15.4421C16.4915 19.0754 17.4976 18.658 18.2396 17.9159C18.9817 17.1738 19.3991 16.1678 19.4004 15.1183V7.20166C19.3991 6.15223 18.9817 5.14614 18.2396 4.40408C17.4976 3.66203 16.4915 3.24458 15.4421 3.24333ZM8.31706 14.3267C8.31706 14.5366 8.23365 14.738 8.08518 14.8865C7.93672 15.0349 7.73535 15.1183 7.52539 15.1183H3.56706C3.35709 15.1183 3.15573 15.0349 3.00726 14.8865C2.8588 14.738 2.77539 14.5366 2.77539 14.3267V7.99333C2.77539 7.78336 2.8588 7.582 3.00726 7.43353C3.15573 7.28507 3.35709 7.20166 3.56706 7.20166H7.52539C7.73535 7.20166 7.93672 7.28507 8.08518 7.43353C8.23365 7.582 8.31706 7.78336 8.31706 7.99333V14.3267ZM9.90039 4.82666C9.69043 4.82666 9.48906 4.74325 9.3406 4.59479C9.19213 4.44632 9.10872 4.24496 9.10872 4.03499V2.45166C9.10872 2.2417 9.19213 2.04033 9.3406 1.89187C9.48906 1.7434 9.69043 1.65999 9.90039 1.65999C10.1104 1.65999 10.3117 1.7434 10.4602 1.89187C10.6087 2.04033 10.6921 2.2417 10.6921 2.45166V4.03499C10.6921 4.24496 10.6087 4.44632 10.4602 4.59479C10.3117 4.74325 10.1104 4.82666 9.90039 4.82666ZM14.6504 15.1183H11.4837C11.2738 15.1183 11.0724 15.0349 10.9239 14.8865C10.7755 14.738 10.6921 14.5366 10.6921 14.3267C10.6921 14.1167 10.7755 13.9153 10.9239 13.7669C11.0724 13.6184 11.2738 13.535 11.4837 13.535H14.6504C14.8604 13.535 15.0617 13.6184 15.2102 13.7669C15.3587 13.9153 15.4421 14.1167 15.4421 14.3267C15.4421 14.5366 15.3587 14.738 15.2102 14.8865C15.0617 15.0349 14.8604 15.1183 14.6504 15.1183ZM16.2337 11.9517H11.4837C11.2738 11.9517 11.0724 11.8683 10.9239 11.7198C10.7755 11.5713 10.6921 11.37 10.6921 11.16C10.6921 10.95 10.7755 10.7487 10.9239 10.6002C11.0724 10.4517 11.2738 10.3683 11.4837 10.3683H16.2337C16.4437 10.3683 16.6451 10.4517 16.7935 10.6002C16.942 10.7487 17.0254 10.95 17.0254 11.16C17.0254 11.37 16.942 11.5713 16.7935 11.7198C16.6451 11.8683 16.4437 11.9517 16.2337 11.9517ZM16.2337 8.78499H11.4837C11.2738 8.78499 11.0724 8.70159 10.9239 8.55312C10.7755 8.40465 10.6921 8.20329 10.6921 7.99333C10.6921 7.78336 10.7755 7.582 10.9239 7.43353C11.0724 7.28507 11.2738 7.20166 11.4837 7.20166H16.2337C16.4437 7.20166 16.6451 7.28507 16.7935 7.43353C16.942 7.582 17.0254 7.78336 17.0254 7.99333C17.0254 8.20329 16.942 8.40465 16.7935 8.55312C16.6451 8.70159 16.4437 8.78499 16.2337 8.78499ZM4.35872 8.78499H6.73372V13.535H4.35872V8.78499Z" fill="#408F8C"/>
</svg>
