<svg width="16" height="17" viewBox="0 0 16 17" fill="none" xmlns="http://www.w3.org/2000/svg">
<g clip-path="url(#clip0_904_13188)">
<path d="M4.05246 3.51039C4.03494 2.955 4.4786 2.48291 5.0458 2.48291H8.3154C8.85456 2.48291 9.29592 2.91336 9.30672 3.45435C9.32988 4.61785 9.48277 8.76557 10.4786 13.0135H11.1369C10.5038 10.3126 10.2114 7.6523 10.0764 5.77371H10.9045C11.5008 5.77371 11.9282 6.28228 11.912 6.82351C11.889 7.58786 11.9516 9.74156 13.0613 13.0135H13.9098C14.2733 13.0135 14.568 13.3081 14.568 13.6716C14.568 14.0351 14.2733 14.3298 13.9098 14.3298H2.06294C1.69946 14.3298 1.40479 14.0351 1.40479 13.6716C1.40479 13.3081 1.69946 13.0135 2.06294 13.0135H2.89022C4.11136 8.81191 4.08993 4.69768 4.05246 3.51039Z" fill="#4E6199"/>
</g>
<defs>
<clipPath id="clip0_904_13188">
<rect width="15.7958" height="15.7958" fill="white" transform="translate(0.102051 0.469238)"/>
</clipPath>
</defs>
</svg>
