<svg width="141" height="140" viewBox="0 0 141 140" fill="none" xmlns="http://www.w3.org/2000/svg">
<g clip-path="url(#clip0_1652_52170)">
<path opacity="0.1" d="M70.5 140C109.16 140 140.5 108.66 140.5 70C140.5 31.3401 109.16 0 70.5 0C31.8401 0 0.5 31.3401 0.5 70C0.5 108.66 31.8401 140 70.5 140Z" fill="#419400"/>
<path d="M100.79 34.8737L71 25L41.21 34.8737C38.9655 35.6178 37.0126 37.0502 35.6285 38.9674C34.2445 40.8846 33.4997 43.1892 33.5 45.5537V69.9663C33.5 98.1813 68 113.762 69.4775 114.411L70.805 115L72.185 114.542C73.67 114.047 108.5 102.13 108.5 69.9663V45.5537C108.5 43.1892 107.756 40.8846 106.371 38.9674C104.987 37.0502 103.034 35.6178 100.79 34.8737ZM72.665 77.425C72.0094 78.0849 71.2293 78.6081 70.3699 78.9641C69.5105 79.3201 68.589 79.5018 67.6587 79.4987H67.535C66.5858 79.4842 65.6495 79.2773 64.7826 78.8906C63.9156 78.5039 63.1362 77.9453 62.4912 77.2488L53.8437 68.2487L59.255 63.0662L67.67 71.8413L87.0987 52.4125L92.4012 57.715L72.665 77.425Z" fill="#419400"/>
</g>
<defs>
<clipPath id="clip0_1652_52170">
<rect width="140" height="140" fill="white" transform="translate(0.5)"/>
</clipPath>
</defs>
</svg>
