<svg width="21" height="15" viewBox="0 0 21 15" fill="none" xmlns="http://www.w3.org/2000/svg">
<path d="M0.523682 1.10071C0.523682 0.548423 0.971397 0.100708 1.52368 0.100708H19.5237C20.076 0.100708 20.5237 0.548425 20.5237 1.10071C20.5237 1.65299 20.076 2.10071 19.5237 2.10071L1.52368 2.10071C0.971397 2.10071 0.523682 1.65299 0.523682 1.10071Z" fill="white"/>
<path d="M0.523682 7.10071C0.523682 6.54842 0.971397 6.10071 1.52368 6.10071L14.5237 6.10071C15.076 6.10071 15.5237 6.54843 15.5237 7.10071C15.5237 7.65299 15.076 8.10071 14.5237 8.10071L1.52368 8.10071C0.971397 8.10071 0.523682 7.65299 0.523682 7.10071Z" fill="white"/>
<path d="M1.52368 12.1007C0.971397 12.1007 0.523682 12.5484 0.523682 13.1007C0.523682 13.653 0.971397 14.1007 1.52368 14.1007L19.5237 14.1007C20.076 14.1007 20.5237 13.653 20.5237 13.1007C20.5237 12.5484 20.076 12.1007 19.5237 12.1007L1.52368 12.1007Z" fill="white"/>
</svg>
