<svg width="40" height="40" viewBox="0 0 40 40" fill="none" xmlns="http://www.w3.org/2000/svg">
<circle cx="20" cy="20.0024" r="20" fill="#F1F1F1"/>
<g clip-path="url(#clip0_2012_6087)">
<path d="M20.0014 10.0024C17.1442 10.0024 14.8086 12.338 14.8086 15.1952C14.8086 18.0523 17.1442 20.3879 20.0014 20.3879C22.8586 20.3879 25.1942 18.0523 25.1942 15.1952C25.1942 12.338 22.8586 10.0024 20.0014 10.0024ZM28.913 24.5376C28.7769 24.1974 28.5955 23.88 28.3915 23.5852C27.3484 22.0432 25.7384 21.0228 23.9244 20.7734C23.6976 20.7507 23.4482 20.7961 23.2668 20.9321C22.3144 21.6351 21.1806 21.9979 20.0014 21.9979C18.8223 21.9979 17.6885 21.6351 16.7361 20.9321C16.5547 20.7961 16.3053 20.728 16.0785 20.7734C14.2645 21.0228 12.6318 22.0432 11.6114 23.5852C11.4073 23.88 11.2259 24.2201 11.0899 24.5376C11.0219 24.6737 11.0445 24.8324 11.1126 24.9684C11.294 25.2859 11.5207 25.6034 11.7248 25.8755C12.0422 26.3063 12.3824 26.6918 12.7679 27.0546C13.0853 27.3721 13.4481 27.6668 13.811 27.9616C15.6024 29.2995 17.7566 30.0024 19.9788 30.0024C22.201 30.0024 24.3552 29.2995 26.1466 27.9616C26.5094 27.6895 26.8722 27.3721 27.1897 27.0546C27.5525 26.6918 27.9153 26.3063 28.2328 25.8755C28.4595 25.5807 28.6636 25.2859 28.845 24.9684C28.9583 24.8324 28.981 24.6736 28.913 24.5376Z" fill="#B9B9B9"/>
</g>
<defs>
<clipPath id="clip0_2012_6087">
<rect width="20" height="20" fill="white" transform="translate(10 10.0024)"/>
</clipPath>
</defs>
</svg>
